<svg width="1200" height="630" viewBox="0 0 1200 630" fill="none" xmlns="http://www.w3.org/2000/svg">
  <defs>
    <radialGradient id="glow" cx="0" cy="0" r="1" gradientUnits="userSpaceOnUse" gradientTransform="translate(924 182) rotate(123.881) scale(420.993 446.723)">
      <stop stop-color="#B22624" stop-opacity="0.22"/>
      <stop offset="1" stop-color="#B22624" stop-opacity="0"/>
    </radialGradient>
  </defs>
  <rect width="1200" height="630" fill="#120F10"/>
  <rect width="1200" height="630" fill="url(#glow)"/>
  <g opacity="0.15" transform="translate(760 106) scale(2.55)">
    <svg x="0" y="0" width="160" height="160" viewBox="-18 -10 196 180" fill="none" xmlns="http://www.w3.org/2000/svg">
    <path
      d="M94 30C82 22 68 18 55 18C27 18 12 42 12 80C12 118 27 142 55 142C68 142 82 138 94 130"
      stroke="#B22624"
      stroke-width="28"
      stroke-linecap="butt"
      stroke-linejoin="miter"
    />
    <g>
      <path
        d="M87 31L120 6L148 24L151 57L143 74L129 50L107 42L92 57L73 41Z M92 39A5 5 0 1 0 92 49A5 5 0 1 0 92 39Z"
        fill="#B22624"
        fill-rule="evenodd"
        clip-rule="evenodd"
      />
      <path d="M102 48L126 65L110 78L88 64Z" fill="#B22624" />
    </g>
    <g>
      <path
        d="M87 129L120 154L148 136L151 103L143 86L129 110L107 118L92 103L73 119Z M92 111A5 5 0 1 0 92 121A5 5 0 1 0 92 111Z"
        fill="#B22624"
        fill-rule="evenodd"
        clip-rule="evenodd"
      />
      <path d="M102 112L126 95L110 82L88 96Z" fill="#B22624" />
    </g>
    </svg>
  </g>
  <g transform="translate(80 84)">
    <path
      d="M70 23C61 16 50 13 40 13C20 13 8 31 8 59C8 87 20 105 40 105C50 105 61 102 70 95"
      stroke="#B22624"
      stroke-width="20"
      stroke-linecap="butt"
      stroke-linejoin="miter"
    />
    <path
      d="M65 23L89 5L110 18L112 42L106 55L96 37L80 31L69 42L55 31Z M69 29A3.6 3.6 0 1 0 69 36.2A3.6 3.6 0 1 0 69 29Z"
      fill="#B22624"
      fill-rule="evenodd"
      clip-rule="evenodd"
    />
    <path
      d="M65 95L89 113L110 100L112 76L106 63L96 81L80 87L69 76L55 87Z M69 82A3.6 3.6 0 1 0 69 89.2A3.6 3.6 0 1 0 69 82Z"
      fill="#B22624"
      fill-rule="evenodd"
      clip-rule="evenodd"
    />
    <path d="M77 35L95 47L83 57L66 48Z" fill="#B22624" />
    <path d="M77 83L95 71L83 61L66 70Z" fill="#B22624" />
  </g>
  <text x="218" y="170" fill="#F7F2EB" font-family="Manrope, Arial, Helvetica, sans-serif" font-size="58" font-weight="800" letter-spacing="-2.5">
    CLAWSOME
  </text>
  <text x="80" y="320" fill="#F7F2EB" font-family="Georgia, 'Times New Roman', serif" font-size="104" letter-spacing="-4">
    Agents work now.
  </text>
  <text x="80" y="386" fill="#D8CEC3" font-family="Manrope, Arial, Helvetica, sans-serif" font-size="28" font-weight="600">
    One useful agent first. Practical OpenClaw and Claude builds for SME workflows.
  </text>
  <text x="80" y="520" fill="#D8CEC3" font-family="Manrope, Arial, Helvetica, sans-serif" font-size="22" font-weight="600" letter-spacing="0.5">
    goodtransformer.github.io/clawsome-site
  </text>
</svg>
