<svg width="720" height="180" viewBox="0 0 720 180" fill="none" xmlns="http://www.w3.org/2000/svg">
  <g transform="translate(0 10)">
    <path
      d="M96 31C84 22 69 18 55 18C28 18 12 42 12 80C12 118 28 142 55 142C69 142 84 138 96 129"
      stroke="#B22624"
      stroke-width="26"
      stroke-linecap="square"
      stroke-linejoin="miter"
    />
    <path
      d="M89 31L145 49L139 78L119 71L104 85L77 65L92 46Z M103 49L123 56L110 67L92 60Z"
      fill="#B22624"
      fill-rule="evenodd"
      clip-rule="evenodd"
    />
    <path
      d="M89 129L145 111L139 82L119 89L104 75L77 95L92 114Z M103 111L123 104L110 93L92 100Z"
      fill="#B22624"
      fill-rule="evenodd"
      clip-rule="evenodd"
    />
  </g>
  <text
    x="190"
    y="112"
    fill="#141011"
    font-family="Manrope, Arial, Helvetica, sans-serif"
    font-size="82"
    font-weight="800"
    letter-spacing="-4"
  >
    CLAWSOME
  </text>
</svg>
