<svg width="720" height="180" viewBox="0 0 720 180" fill="none" xmlns="http://www.w3.org/2000/svg">
  <g transform="translate(0 10)">
    <path
      d="M94 30C82 22 68 18 55 18C27 18 12 42 12 80C12 118 27 142 55 142C68 142 82 138 94 130"
      stroke="#B22624"
      stroke-width="28"
      stroke-linecap="butt"
      stroke-linejoin="miter"
    />
    <path
      d="M87 31L120 6L148 24L151 57L143 74L129 50L107 42L92 57L73 41Z M92 39A5 5 0 1 0 92 49A5 5 0 1 0 92 39Z"
      fill="#B22624"
      fill-rule="evenodd"
      clip-rule="evenodd"
    />
    <path
      d="M87 129L120 154L148 136L151 103L143 86L129 110L107 118L92 103L73 119Z M92 111A5 5 0 1 0 92 121A5 5 0 1 0 92 111Z"
      fill="#B22624"
      fill-rule="evenodd"
      clip-rule="evenodd"
    />
    <path d="M102 48L126 65L110 78L88 64Z" fill="#B22624" />
    <path d="M102 112L126 95L110 82L88 96Z" fill="#B22624" />
  </g>
  <text
    x="190"
    y="112"
    fill="#F7F2EB"
    font-family="Manrope, Arial, Helvetica, sans-serif"
    font-size="82"
    font-weight="800"
    letter-spacing="-4"
  >
    CLAWSOME
  </text>
</svg>
